<svg xmlns="http://www.w3.org/2000/svg" width="160" height="160" viewBox="0 0 200 200">
  <defs><linearGradient id="g2" x1="0" y1="0" x2="1" y2="1"><stop offset="0%" stop-color="#ffdd7a"/><stop offset="100%" stop-color="#ff9da8"/></linearGradient></defs>
  <path fill="url(#g2)" d="M41.4,-64.9C50.1,-56.7,52.8,-39.1,59.1,-23.6C65.4,-8.1,75.3,5.4,77.2,21.1C79,36.8,72.8,54.7,59.7,63.5C46.6,72.3,26.7,71.9,9.8,63.9C-7,55.9,-14,40.4,-24.4,29.8C-34.9,19.3,-48.8,13.7,-58.2,2.1C-67.6,-9.4,-72.4,-26.1,-65.8,-38.4C-59.2,-50.7,-41.2,-58.5,-25.1,-64.7C-9,-70.9,5.3,-75.6,18.3,-73.9C31.2,-72.1,41.8,-63.1,41.4,-64.9Z" transform="translate(100 100)" />
</svg>
