<svg xmlns="http://www.w3.org/2000/svg" width="220" height="220" viewBox="0 0 200 200">
  <defs><linearGradient id="g" x1="0" y1="0" x2="1" y2="1"><stop offset="0%" stop-color="#74d5ff"/><stop offset="100%" stop-color="#c2a0ff"/></linearGradient></defs>
  <path fill="url(#g)" d="M44.7,-65.7C58.6,-57.8,70.2,-46,76.1,-31.5C82.1,-17,82.5,-0,76.2,13.5C69.8,27.1,56.6,37.2,43.7,49.6C30.8,61.9,18.1,76.4,3.5,79C-11,81.7,-22.1,72.5,-36.4,63.6C-50.6,54.7,-68,46.1,-73.9,33.2C-79.8,20.4,-74.2,3.3,-68.6,-11.3C-62.9,-25.9,-57.1,-38,-47.1,-47.2C-37,-56.5,-22.6,-62.9,-7.7,-66.1C7.2,-69.3,14.4,-69.2,44.7,-65.7Z" transform="translate(100 100)" />
</svg>
